G04 #@! TF.FileFunction,Soldermask,Bot*
%FSLAX46Y46*%
G04 Gerber Fmt 4.6, Leading zero omitted, Abs format (unit mm)*
G04 Created by KiCad (PCBNEW 4.0.7-e2-6376~58~ubuntu16.04.1) date Sun Nov  5 21:07:29 2017*
%MOMM*%
%LPD*%
G01*
G04 APERTURE LIST*
%ADD10C,0.100000*%
%ADD11C,0.150000*%
%ADD12R,3.900000X3.900000*%
%ADD13R,2.100000X2.100000*%
%ADD14O,2.100000X2.100000*%
%ADD15C,1.400000*%
%ADD16C,2.000000*%
%ADD17C,1.924000*%
%ADD18C,6.800000*%
%ADD19C,1.200000*%
G04 APERTURE END LIST*
D10*
D11*
X250600000Y-65000000D02*
G75*
G03X246600000Y-61000000I-4000000J0D01*
G01*
X246600000Y-141000000D02*
G75*
G03X250600000Y-137000000I0J4000000D01*
G01*
X50600000Y-137000000D02*
G75*
G03X54600000Y-141000000I4000000J0D01*
G01*
X54600000Y-61000000D02*
G75*
G03X50600000Y-65000000I0J-4000000D01*
G01*
X246600000Y-141000000D02*
X54600000Y-141000000D01*
X250600000Y-65000000D02*
X250600000Y-137000000D01*
X54600000Y-61000000D02*
X246600000Y-61000000D01*
X50600000Y-137000000D02*
X50600000Y-65000000D01*
D12*
X150600000Y-71000000D03*
X150600000Y-65000000D03*
X145900000Y-68000000D03*
D13*
X94430000Y-63500000D03*
D14*
X91890000Y-63500000D03*
X89350000Y-63500000D03*
D15*
X120100000Y-101000000D03*
X115100000Y-101000000D03*
X186100000Y-101000000D03*
X181100000Y-101000000D03*
D16*
X56000000Y-119250000D03*
X63600000Y-119250000D03*
D17*
X71600000Y-95495000D03*
X74160000Y-96125000D03*
X76130000Y-97875000D03*
X77060000Y-100355000D03*
X76740000Y-102945000D03*
X75250000Y-105115000D03*
X72920000Y-106335000D03*
X70280000Y-106335000D03*
X67950000Y-105115000D03*
X66460000Y-102945000D03*
X66140000Y-100335000D03*
X67070000Y-97875000D03*
X69040000Y-96125000D03*
X97600000Y-95500000D03*
X100160000Y-96130000D03*
X102130000Y-97880000D03*
X103060000Y-100360000D03*
X102740000Y-102950000D03*
X101250000Y-105120000D03*
X98920000Y-106340000D03*
X96280000Y-106340000D03*
X93950000Y-105120000D03*
X92460000Y-102950000D03*
X92140000Y-100340000D03*
X93070000Y-97880000D03*
X95040000Y-96130000D03*
X137600000Y-95500000D03*
X140160000Y-96130000D03*
X142130000Y-97880000D03*
X143060000Y-100360000D03*
X142740000Y-102950000D03*
X141250000Y-105120000D03*
X138920000Y-106340000D03*
X136280000Y-106340000D03*
X133950000Y-105120000D03*
X132460000Y-102950000D03*
X132140000Y-100340000D03*
X133070000Y-97880000D03*
X135040000Y-96130000D03*
X163600000Y-95500000D03*
X166160000Y-96130000D03*
X168130000Y-97880000D03*
X169060000Y-100360000D03*
X168740000Y-102950000D03*
X167250000Y-105120000D03*
X164920000Y-106340000D03*
X162280000Y-106340000D03*
X159950000Y-105120000D03*
X158460000Y-102950000D03*
X158140000Y-100340000D03*
X159070000Y-97880000D03*
X161040000Y-96130000D03*
X203600000Y-95495000D03*
X206160000Y-96125000D03*
X208130000Y-97875000D03*
X209060000Y-100355000D03*
X208740000Y-102945000D03*
X207250000Y-105115000D03*
X204920000Y-106335000D03*
X202280000Y-106335000D03*
X199950000Y-105115000D03*
X198460000Y-102945000D03*
X198140000Y-100335000D03*
X199070000Y-97875000D03*
X201040000Y-96125000D03*
X229600000Y-95495000D03*
X232160000Y-96125000D03*
X234130000Y-97875000D03*
X235060000Y-100355000D03*
X234740000Y-102945000D03*
X233250000Y-105115000D03*
X230920000Y-106335000D03*
X228280000Y-106335000D03*
X225950000Y-105115000D03*
X224460000Y-102945000D03*
X224140000Y-100335000D03*
X225070000Y-97875000D03*
X227040000Y-96125000D03*
D18*
X55600000Y-136000000D03*
D19*
X58000000Y-136000000D03*
X57297056Y-137697056D03*
X55600000Y-138400000D03*
X53902944Y-137697056D03*
X53200000Y-136000000D03*
X53902944Y-134302944D03*
X55600000Y-133600000D03*
X57297056Y-134302944D03*
D18*
X55600000Y-66000000D03*
D19*
X58000000Y-66000000D03*
X57297056Y-67697056D03*
X55600000Y-68400000D03*
X53902944Y-67697056D03*
X53200000Y-66000000D03*
X53902944Y-64302944D03*
X55600000Y-63600000D03*
X57297056Y-64302944D03*
D18*
X245600000Y-66000000D03*
D19*
X248000000Y-66000000D03*
X247297056Y-67697056D03*
X245600000Y-68400000D03*
X243902944Y-67697056D03*
X243200000Y-66000000D03*
X243902944Y-64302944D03*
X245600000Y-63600000D03*
X247297056Y-64302944D03*
D18*
X245600000Y-136000000D03*
D19*
X248000000Y-136000000D03*
X247297056Y-137697056D03*
X245600000Y-138400000D03*
X243902944Y-137697056D03*
X243200000Y-136000000D03*
X243902944Y-134302944D03*
X245600000Y-133600000D03*
X247297056Y-134302944D03*
M02*
