M48
;DRILL file {KiCad 4.0.7-e2-6376~58~ubuntu16.04.1} date Sun Nov  5 21:07:54 2017
;FORMAT={3:3/ absolute / metric / suppress leading zeros}
FMAT,2
METRIC,TZ
T1C0.400
T2C0.500
T3C0.762
T4C0.800
T5C1.000
T6C3.200
%
G90
G05
M71
T1
X54850Y-77000
X55100Y-79250
X55350Y-73000
X55600Y-85750
X55850Y-82500
X55850Y-89000
X55850Y-100500
X57100Y-125500
X57600Y-106000
X58100Y-113250
X60600Y-68000
X60600Y-78000
X61100Y-83000
X61600Y-80750
X61850Y-106250
X62100Y-101250
X62350Y-88750
X63350Y-94500
X63600Y-113250
X64350Y-125250
X66350Y-65750
X66350Y-92000
X66350Y-95000
X66600Y-89750
X67600Y-131750
X70313Y-92787
X70350Y-90750
X70526Y-99235
X71100Y-81750
X71600Y-76000
X71600Y-78000
X71600Y-80000
X71850Y-104000
X72100Y-97500
X72193Y-99793
X72350Y-69750
X72350Y-135500
X72850Y-91750
X73850Y-76000
X74100Y-79500
X75350Y-78000
X75350Y-112500
X76100Y-124500
X76350Y-77000
X76850Y-73250
X76850Y-93000
X77350Y-83500
X77350Y-84750
X79600Y-82000
X79850Y-95000
X80100Y-109250
X80350Y-99500
X81100Y-70500
X81100Y-78250
X81850Y-80000
X82600Y-106750
X83850Y-89000
X84100Y-95750
X84350Y-102750
X84600Y-112000
X85850Y-86250
X85850Y-116000
X86600Y-73250
X86600Y-74750
X86600Y-126750
X87100Y-99250
X88100Y-106750
X88350Y-84750
X88850Y-93240
X89350Y-95250
X89400Y-68200
X90600Y-80000
X91600Y-82250
X91850Y-91000
X92100Y-68200
X94350Y-66000
X94600Y-68200
X94600Y-79750
X96600Y-90500
X96600Y-135250
X96850Y-99250
X96850Y-100750
X97100Y-64250
X97350Y-97500
X97600Y-104000
X97600Y-122250
X97850Y-76750
X97850Y-85500
X98100Y-129000
X98350Y-99500
X98600Y-115000
X100600Y-83250
X100657Y-113406
X101600Y-68000
X101951Y-113419
X102100Y-93240
X102160Y-96020
X103234Y-113445
X104518Y-113528
X104600Y-82500
X104850Y-97500
X105350Y-62750
X105600Y-120394
X106100Y-90500
X106850Y-106250
X107100Y-70500
X107350Y-131000
X107600Y-96000
X108600Y-71750
X108600Y-103000
X108850Y-127000
X109100Y-123500
X109350Y-79250
X109350Y-129500
X110100Y-67250
X110600Y-97750
X110603Y-130752
X110766Y-131950
X110850Y-117750
X111600Y-126000
X111710Y-132690
X112594Y-133503
X113100Y-90750
X113162Y-121728
X113341Y-117750
X113600Y-96250
X113670Y-134035
X113850Y-63000
X113850Y-114178
X114100Y-84000
X114100Y-106000
X115100Y-134601
X115600Y-116250
X116600Y-82000
X116850Y-118500
X116850Y-121500
X117350Y-115000
X117850Y-82000
X118100Y-128750
X119100Y-82000
X120600Y-84250
X120600Y-109250
X121100Y-96000
X121850Y-116500
X122350Y-107250
X122350Y-125500
X123350Y-90500
X123600Y-99500
X123600Y-105000
X125600Y-128500
X126850Y-81750
X127600Y-88750
X127850Y-105250
X128850Y-118250
X129850Y-111012
X130350Y-136623
X130850Y-95500
X131100Y-111516
X131600Y-122250
X131850Y-76250
X132350Y-112166
X133350Y-90250
X133600Y-86250
X133600Y-117500
X133850Y-112750
X134600Y-113750
X135850Y-71750
X136100Y-78500
X136100Y-121750
X136350Y-130750
X136600Y-97500
X136850Y-99250
X136850Y-100750
X137300Y-121750
X137600Y-104000
X138100Y-98500
X138500Y-121750
X138600Y-70500
X139850Y-121750
X140600Y-87000
X141100Y-121750
X141850Y-64000
X141850Y-67250
X141850Y-70000
X142243Y-136947
X142350Y-93240
X142350Y-96000
X142350Y-121750
X142850Y-123250
X143850Y-89500
X144100Y-96500
X144350Y-86250
X144350Y-112750
X145350Y-122250
X145600Y-118500
X145850Y-109250
X146350Y-99250
X146600Y-78500
X146850Y-97000
X148100Y-107500
X149600Y-136750
X150100Y-83000
X150600Y-96000
X150850Y-82250
X150850Y-130000
X151850Y-82250
X151850Y-112500
X152100Y-86000
X152350Y-106750
X152600Y-90250
X152600Y-117750
X153100Y-78750
X153100Y-99500
X154316Y-137048
X155350Y-79250
X155600Y-120250
X156350Y-64250
X156350Y-66500
X157350Y-82250
X157600Y-85500
X157600Y-90500
X157850Y-95250
X158350Y-122500
X160350Y-73250
X161100Y-90250
X161350Y-85250
X161600Y-137000
X162100Y-129500
X162850Y-99500
X162850Y-100750
X163350Y-69500
X164100Y-98500
X165850Y-80000
X166350Y-136750
X167850Y-93250
X167930Y-96200
X168100Y-82250
X168350Y-112750
X169600Y-78250
X170350Y-137750
X171100Y-68000
X172100Y-90250
X173600Y-96000
X174100Y-106500
X174600Y-86000
X174850Y-129500
X176350Y-80000
X177100Y-65000
X177100Y-70750
X177100Y-74250
X177600Y-90750
X178850Y-80000
X178850Y-96750
X180600Y-132750
X182100Y-79500
X182100Y-106750
X186100Y-109250
X187100Y-84500
X188100Y-90250
X189100Y-80000
X189350Y-74000
X189600Y-112750
X191350Y-80000
X191600Y-97250
X191850Y-105500
X192600Y-85000
X193850Y-70000
X193850Y-73750
X194850Y-81250
X194850Y-82250
X197100Y-105750
X198100Y-90250
X200850Y-66000
X201350Y-71000
X201350Y-77500
X201600Y-123500
X201600Y-126250
X202850Y-99500
X202850Y-100750
X203100Y-97750
X203350Y-112750
X203600Y-104250
X203600Y-116750
X203600Y-134250
X204350Y-128250
X205100Y-98000
X205600Y-77500
X205850Y-71000
X206100Y-126000
X206350Y-90250
X206850Y-85250
X207100Y-122750
X207600Y-111500
X207850Y-93233
X207968Y-96000
X210100Y-66000
X210350Y-136250
X212100Y-109250
X212100Y-124500
X212850Y-97000
X213100Y-122750
X213350Y-88000
X214600Y-76750
X214600Y-77750
X214600Y-107000
X216350Y-115250
X216350Y-117750
X218100Y-74500
X218350Y-64250
X219100Y-118500
X220350Y-107000
X220350Y-115250
X221100Y-91000
X221350Y-129750
X221600Y-82500
X222100Y-79000
X222850Y-69000
X223350Y-65000
X224100Y-95250
X225850Y-83000
X226100Y-111750
X227600Y-74000
X227600Y-78250
X228600Y-97750
X228850Y-100750
X228850Y-122000
X229350Y-84750
X229600Y-81250
X229600Y-104000
X230350Y-98500
X231350Y-90500
X231600Y-77000
X235850Y-112750
X237100Y-85000
X237850Y-73250
X238350Y-77500
X238600Y-106250
X242350Y-90250
X242850Y-106250
X243600Y-85250
X245600Y-112750
X245850Y-106750
X246100Y-73250
X247100Y-90250
X247600Y-104500
T2
X53200Y-66000
X53200Y-136000
X53903Y-64303
X53903Y-67697
X53903Y-134303
X53903Y-137697
X55600Y-63600
X55600Y-68400
X55600Y-133600
X55600Y-138400
X57297Y-64303
X57297Y-67697
X57297Y-134303
X57297Y-137697
X58000Y-66000
X58000Y-136000
X115100Y-101000
X120100Y-101000
X181100Y-101000
X186100Y-101000
X243200Y-66000
X243200Y-136000
X243903Y-64303
X243903Y-67697
X243903Y-134303
X243903Y-137697
X245600Y-63600
X245600Y-68400
X245600Y-133600
X245600Y-138400
X247297Y-64303
X247297Y-67697
X247297Y-134303
X247297Y-137697
X248000Y-66000
X248000Y-136000
T3
X66140Y-100335
X66460Y-102945
X67070Y-97875
X67950Y-105115
X69040Y-96125
X70280Y-106335
X71600Y-95495
X72920Y-106335
X74160Y-96125
X75250Y-105115
X76130Y-97875
X76740Y-102945
X77060Y-100355
X92140Y-100340
X92460Y-102950
X93070Y-97880
X93950Y-105120
X95040Y-96130
X96280Y-106340
X97600Y-95500
X98920Y-106340
X100160Y-96130
X101250Y-105120
X102130Y-97880
X102740Y-102950
X103060Y-100360
X132140Y-100340
X132460Y-102950
X133070Y-97880
X133950Y-105120
X135040Y-96130
X136280Y-106340
X137600Y-95500
X138920Y-106340
X140160Y-96130
X141250Y-105120
X142130Y-97880
X142740Y-102950
X143060Y-100360
X158140Y-100340
X158460Y-102950
X159070Y-97880
X159950Y-105120
X161040Y-96130
X162280Y-106340
X163600Y-95500
X164920Y-106340
X166160Y-96130
X167250Y-105120
X168130Y-97880
X168740Y-102950
X169060Y-100360
X198140Y-100335
X198460Y-102945
X199070Y-97875
X199950Y-105115
X201040Y-96125
X202280Y-106335
X203600Y-95495
X204920Y-106335
X206160Y-96125
X207250Y-105115
X208130Y-97875
X208740Y-102945
X209060Y-100355
X224140Y-100335
X224460Y-102945
X225070Y-97875
X225950Y-105115
X227040Y-96125
X228280Y-106335
X229600Y-95495
X230920Y-106335
X232160Y-96125
X233250Y-105115
X234130Y-97875
X234740Y-102945
X235060Y-100355
T4
X56000Y-119250
X63600Y-119250
T5
X89350Y-63500
X91890Y-63500
X94430Y-63500
T6
X55600Y-66000
X55600Y-136000
X245600Y-66000
X245600Y-136000
T5
X145900Y-67000G85X145900Y-69000
G05
X151600Y-65000G85X149600Y-65000
G05
X151600Y-71000G85X149600Y-71000
G05
T0
M30
