G04 #@! TF.FileFunction,Soldermask,Top*
%FSLAX46Y46*%
G04 Gerber Fmt 4.6, Leading zero omitted, Abs format (unit mm)*
G04 Created by KiCad (PCBNEW 4.0.7-e2-6376~58~ubuntu16.04.1) date Sun Nov  5 21:07:29 2017*
%MOMM*%
%LPD*%
G01*
G04 APERTURE LIST*
%ADD10C,0.100000*%
%ADD11C,0.150000*%
%ADD12C,1.900000*%
%ADD13R,1.900000X0.850000*%
%ADD14R,1.700000X1.900000*%
%ADD15R,1.900000X1.700000*%
%ADD16R,1.000000X1.950000*%
%ADD17R,2.400000X4.200000*%
%ADD18R,2.400000X1.900000*%
%ADD19R,1.900000X1.650000*%
%ADD20R,1.650000X1.900000*%
%ADD21R,2.900000X2.200000*%
%ADD22R,1.600000X1.300000*%
%ADD23R,3.900000X3.900000*%
%ADD24R,2.100000X2.100000*%
%ADD25O,2.100000X2.100000*%
%ADD26R,5.500000X2.750000*%
%ADD27R,5.300000X5.800000*%
%ADD28C,1.400000*%
%ADD29R,0.850000X1.900000*%
%ADD30R,4.200000X2.400000*%
%ADD31R,1.900000X2.400000*%
%ADD32C,2.000000*%
%ADD33R,1.700000X1.700000*%
%ADD34R,1.700000X2.400000*%
%ADD35R,2.400000X1.700000*%
%ADD36R,1.797000X2.508200*%
%ADD37R,1.950000X1.000000*%
%ADD38R,1.400000X2.900000*%
%ADD39R,3.400000X2.900000*%
%ADD40C,1.924000*%
%ADD41C,2.540000*%
%ADD42C,6.800000*%
%ADD43C,1.200000*%
%ADD44R,2.900000X4.400000*%
%ADD45R,2.000000X1.400000*%
%ADD46R,2.900000X5.500000*%
%ADD47C,18.200000*%
%ADD48R,2.900000X1.500000*%
G04 APERTURE END LIST*
D10*
D11*
X250600000Y-65000000D02*
G75*
G03X246600000Y-61000000I-4000000J0D01*
G01*
X246600000Y-141000000D02*
G75*
G03X250600000Y-137000000I0J4000000D01*
G01*
X50600000Y-137000000D02*
G75*
G03X54600000Y-141000000I4000000J0D01*
G01*
X54600000Y-61000000D02*
G75*
G03X50600000Y-65000000I0J-4000000D01*
G01*
X246600000Y-141000000D02*
X54600000Y-141000000D01*
X250600000Y-65000000D02*
X250600000Y-137000000D01*
X54600000Y-61000000D02*
X246600000Y-61000000D01*
X50600000Y-137000000D02*
X50600000Y-65000000D01*
D12*
X112350000Y-119000000D03*
D13*
X119930000Y-117900000D03*
X119930000Y-116600000D03*
X117270000Y-117250000D03*
D14*
X116350000Y-126100000D03*
X116350000Y-123400000D03*
D13*
X119930000Y-114650000D03*
X119930000Y-113350000D03*
X117270000Y-114000000D03*
D14*
X119600000Y-126100000D03*
X119600000Y-123400000D03*
X113100000Y-126100000D03*
X113100000Y-123400000D03*
D13*
X119930000Y-121150000D03*
X119930000Y-119850000D03*
X117270000Y-120500000D03*
D15*
X126450000Y-114500000D03*
X123750000Y-114500000D03*
X126450000Y-121000000D03*
X123750000Y-121000000D03*
D16*
X101505000Y-74550000D03*
X100235000Y-74550000D03*
X98965000Y-74550000D03*
X97695000Y-74550000D03*
X97695000Y-79950000D03*
X98965000Y-79950000D03*
X100235000Y-79950000D03*
X101505000Y-79950000D03*
D12*
X104100000Y-74500000D03*
D17*
X104700000Y-85500000D03*
D18*
X111000000Y-85500000D03*
X111000000Y-83200000D03*
X111000000Y-87800000D03*
D19*
X178350000Y-77500000D03*
X175850000Y-77500000D03*
D20*
X171350000Y-82500000D03*
X171350000Y-85000000D03*
D19*
X179600000Y-88250000D03*
X177100000Y-88250000D03*
D20*
X213100000Y-81000000D03*
X213100000Y-83500000D03*
X215850000Y-81000000D03*
X215850000Y-83500000D03*
X218600000Y-84750000D03*
X218600000Y-87250000D03*
X103600000Y-77750000D03*
X103600000Y-80250000D03*
X105850000Y-77750000D03*
X105850000Y-80250000D03*
X104350000Y-71000000D03*
X104350000Y-68500000D03*
X96850000Y-71000000D03*
X96850000Y-68500000D03*
X92100000Y-80000000D03*
X92100000Y-77500000D03*
X56600000Y-79250000D03*
X56600000Y-76750000D03*
X62100000Y-79250000D03*
X62100000Y-76750000D03*
X139600000Y-78250000D03*
X139600000Y-75750000D03*
X64600000Y-84750000D03*
X64600000Y-87250000D03*
D21*
X193100000Y-66000000D03*
X197100000Y-66000000D03*
D22*
X228100000Y-80150000D03*
X228100000Y-76850000D03*
D21*
X238100000Y-70250000D03*
X234100000Y-70250000D03*
D14*
X82100000Y-90100000D03*
X82100000Y-87400000D03*
D23*
X150600000Y-71000000D03*
X150600000Y-65000000D03*
X145900000Y-68000000D03*
D24*
X94430000Y-63500000D03*
D25*
X91890000Y-63500000D03*
X89350000Y-63500000D03*
D26*
X188100000Y-68075000D03*
X188100000Y-63925000D03*
D27*
X216950000Y-69000000D03*
X228750000Y-69000000D03*
D28*
X120100000Y-101000000D03*
X115100000Y-101000000D03*
X186100000Y-101000000D03*
X181100000Y-101000000D03*
D29*
X183200000Y-77830000D03*
X184500000Y-77830000D03*
X183850000Y-75170000D03*
D13*
X183770000Y-80100000D03*
X183770000Y-81400000D03*
X186430000Y-80750000D03*
D30*
X189350000Y-71350000D03*
D31*
X189350000Y-77650000D03*
X191650000Y-77650000D03*
X187050000Y-77650000D03*
D29*
X228750000Y-82670000D03*
X227450000Y-82670000D03*
X228100000Y-85330000D03*
D30*
X233850000Y-73850000D03*
D31*
X233850000Y-80150000D03*
X236150000Y-80150000D03*
X231550000Y-80150000D03*
D17*
X149750000Y-77000000D03*
D18*
X143450000Y-77000000D03*
X143450000Y-79300000D03*
X143450000Y-74700000D03*
D14*
X180850000Y-75150000D03*
X180850000Y-77850000D03*
X182850000Y-88600000D03*
X182850000Y-85900000D03*
D15*
X179700000Y-86000000D03*
X177000000Y-86000000D03*
D14*
X231100000Y-82650000D03*
X231100000Y-85350000D03*
D15*
X234450000Y-87750000D03*
X231750000Y-87750000D03*
X229200000Y-87750000D03*
X226500000Y-87750000D03*
D14*
X221100000Y-84650000D03*
X221100000Y-87350000D03*
X223600000Y-87350000D03*
X223600000Y-84650000D03*
X78850000Y-90100000D03*
X78850000Y-87400000D03*
X59350000Y-76650000D03*
X59350000Y-79350000D03*
X64600000Y-76650000D03*
X64600000Y-79350000D03*
D32*
X56000000Y-119250000D03*
X63600000Y-119250000D03*
D14*
X72850000Y-90100000D03*
X72850000Y-87400000D03*
X75850000Y-87400000D03*
X75850000Y-90100000D03*
X60850000Y-70150000D03*
X60850000Y-72850000D03*
X63850000Y-70150000D03*
X63850000Y-72850000D03*
X58100000Y-70150000D03*
X58100000Y-72850000D03*
X88850000Y-77400000D03*
X88850000Y-80100000D03*
X88850000Y-70650000D03*
X88850000Y-73350000D03*
X92100000Y-70650000D03*
X92100000Y-73350000D03*
D15*
X126450000Y-117750000D03*
X123750000Y-117750000D03*
D14*
X86600000Y-96850000D03*
X86600000Y-94150000D03*
X82350000Y-94150000D03*
X82350000Y-96850000D03*
X82350000Y-101650000D03*
X82350000Y-104350000D03*
X86600000Y-104350000D03*
X86600000Y-101650000D03*
X107850000Y-97400000D03*
X107850000Y-100100000D03*
X152850000Y-96850000D03*
X152850000Y-94150000D03*
X148600000Y-94150000D03*
X148600000Y-96850000D03*
X148600000Y-101650000D03*
X148600000Y-104350000D03*
X152850000Y-104350000D03*
X152850000Y-101650000D03*
X173600000Y-97650000D03*
X173600000Y-100350000D03*
X218600000Y-96850000D03*
X218600000Y-94150000D03*
X214350000Y-94150000D03*
X214350000Y-96850000D03*
X214350000Y-101650000D03*
X214350000Y-104350000D03*
X218600000Y-104350000D03*
X218600000Y-101650000D03*
X111100000Y-100650000D03*
X111100000Y-103350000D03*
X111100000Y-105900000D03*
X111100000Y-108600000D03*
X177350000Y-101150000D03*
X177350000Y-103850000D03*
X177350000Y-106400000D03*
X177350000Y-109100000D03*
D33*
X190450000Y-84100000D03*
D34*
X185250000Y-85250000D03*
D33*
X190450000Y-86400000D03*
X215700000Y-87100000D03*
D34*
X210500000Y-88250000D03*
D33*
X215700000Y-89400000D03*
X54700000Y-97900000D03*
D35*
X55850000Y-103100000D03*
D33*
X57000000Y-97900000D03*
D36*
X130250000Y-125450000D03*
X134950000Y-134550000D03*
X134950000Y-125450000D03*
X130250000Y-134550000D03*
X142250000Y-125450000D03*
X146950000Y-134550000D03*
X146950000Y-125450000D03*
X142250000Y-134550000D03*
X154250000Y-125450000D03*
X158950000Y-134550000D03*
X158950000Y-125450000D03*
X154250000Y-134550000D03*
X166250000Y-125450000D03*
X170950000Y-134550000D03*
X170950000Y-125450000D03*
X166250000Y-134550000D03*
D37*
X174900000Y-80095000D03*
X174900000Y-81365000D03*
X174900000Y-82635000D03*
X174900000Y-83905000D03*
X180300000Y-83905000D03*
X180300000Y-82635000D03*
X180300000Y-81365000D03*
X180300000Y-80095000D03*
X218900000Y-77845000D03*
X218900000Y-79115000D03*
X218900000Y-80385000D03*
X218900000Y-81655000D03*
X224300000Y-81655000D03*
X224300000Y-80385000D03*
X224300000Y-79115000D03*
X224300000Y-77845000D03*
D10*
G36*
X90147095Y-127446590D02*
X89496556Y-126796051D01*
X90840059Y-125452548D01*
X91490598Y-126103087D01*
X90147095Y-127446590D01*
X90147095Y-127446590D01*
G37*
G36*
X90712780Y-128012275D02*
X90062241Y-127361736D01*
X91405744Y-126018233D01*
X92056283Y-126668772D01*
X90712780Y-128012275D01*
X90712780Y-128012275D01*
G37*
G36*
X91278466Y-128577961D02*
X90627927Y-127927422D01*
X91971430Y-126583919D01*
X92621969Y-127234458D01*
X91278466Y-128577961D01*
X91278466Y-128577961D01*
G37*
G36*
X91844151Y-129143646D02*
X91193612Y-128493107D01*
X92537115Y-127149604D01*
X93187654Y-127800143D01*
X91844151Y-129143646D01*
X91844151Y-129143646D01*
G37*
G36*
X92409837Y-129709332D02*
X91759298Y-129058793D01*
X93102801Y-127715290D01*
X93753340Y-128365829D01*
X92409837Y-129709332D01*
X92409837Y-129709332D01*
G37*
G36*
X92975522Y-130275017D02*
X92324983Y-129624478D01*
X93668486Y-128280975D01*
X94319025Y-128931514D01*
X92975522Y-130275017D01*
X92975522Y-130275017D01*
G37*
G36*
X93541207Y-130840702D02*
X92890668Y-130190163D01*
X94234171Y-128846660D01*
X94884710Y-129497199D01*
X93541207Y-130840702D01*
X93541207Y-130840702D01*
G37*
G36*
X94106893Y-131406388D02*
X93456354Y-130755849D01*
X94799857Y-129412346D01*
X95450396Y-130062885D01*
X94106893Y-131406388D01*
X94106893Y-131406388D01*
G37*
G36*
X94672578Y-131972073D02*
X94022039Y-131321534D01*
X95365542Y-129978031D01*
X96016081Y-130628570D01*
X94672578Y-131972073D01*
X94672578Y-131972073D01*
G37*
G36*
X95238264Y-132537759D02*
X94587725Y-131887220D01*
X95931228Y-130543717D01*
X96581767Y-131194256D01*
X95238264Y-132537759D01*
X95238264Y-132537759D01*
G37*
G36*
X95803949Y-133103444D02*
X95153410Y-132452905D01*
X96496913Y-131109402D01*
X97147452Y-131759941D01*
X95803949Y-133103444D01*
X95803949Y-133103444D01*
G37*
G36*
X99396051Y-133103444D02*
X98052548Y-131759941D01*
X98703087Y-131109402D01*
X100046590Y-132452905D01*
X99396051Y-133103444D01*
X99396051Y-133103444D01*
G37*
G36*
X99961736Y-132537759D02*
X98618233Y-131194256D01*
X99268772Y-130543717D01*
X100612275Y-131887220D01*
X99961736Y-132537759D01*
X99961736Y-132537759D01*
G37*
G36*
X100527422Y-131972073D02*
X99183919Y-130628570D01*
X99834458Y-129978031D01*
X101177961Y-131321534D01*
X100527422Y-131972073D01*
X100527422Y-131972073D01*
G37*
G36*
X101093107Y-131406388D02*
X99749604Y-130062885D01*
X100400143Y-129412346D01*
X101743646Y-130755849D01*
X101093107Y-131406388D01*
X101093107Y-131406388D01*
G37*
G36*
X101658793Y-130840702D02*
X100315290Y-129497199D01*
X100965829Y-128846660D01*
X102309332Y-130190163D01*
X101658793Y-130840702D01*
X101658793Y-130840702D01*
G37*
G36*
X102224478Y-130275017D02*
X100880975Y-128931514D01*
X101531514Y-128280975D01*
X102875017Y-129624478D01*
X102224478Y-130275017D01*
X102224478Y-130275017D01*
G37*
G36*
X102790163Y-129709332D02*
X101446660Y-128365829D01*
X102097199Y-127715290D01*
X103440702Y-129058793D01*
X102790163Y-129709332D01*
X102790163Y-129709332D01*
G37*
G36*
X103355849Y-129143646D02*
X102012346Y-127800143D01*
X102662885Y-127149604D01*
X104006388Y-128493107D01*
X103355849Y-129143646D01*
X103355849Y-129143646D01*
G37*
G36*
X103921534Y-128577961D02*
X102578031Y-127234458D01*
X103228570Y-126583919D01*
X104572073Y-127927422D01*
X103921534Y-128577961D01*
X103921534Y-128577961D01*
G37*
G36*
X104487220Y-128012275D02*
X103143717Y-126668772D01*
X103794256Y-126018233D01*
X105137759Y-127361736D01*
X104487220Y-128012275D01*
X104487220Y-128012275D01*
G37*
G36*
X105052905Y-127446590D02*
X103709402Y-126103087D01*
X104359941Y-125452548D01*
X105703444Y-126796051D01*
X105052905Y-127446590D01*
X105052905Y-127446590D01*
G37*
G36*
X104359941Y-124547452D02*
X103709402Y-123896913D01*
X105052905Y-122553410D01*
X105703444Y-123203949D01*
X104359941Y-124547452D01*
X104359941Y-124547452D01*
G37*
G36*
X103794256Y-123981767D02*
X103143717Y-123331228D01*
X104487220Y-121987725D01*
X105137759Y-122638264D01*
X103794256Y-123981767D01*
X103794256Y-123981767D01*
G37*
G36*
X103228570Y-123416081D02*
X102578031Y-122765542D01*
X103921534Y-121422039D01*
X104572073Y-122072578D01*
X103228570Y-123416081D01*
X103228570Y-123416081D01*
G37*
G36*
X102662885Y-122850396D02*
X102012346Y-122199857D01*
X103355849Y-120856354D01*
X104006388Y-121506893D01*
X102662885Y-122850396D01*
X102662885Y-122850396D01*
G37*
G36*
X102097199Y-122284710D02*
X101446660Y-121634171D01*
X102790163Y-120290668D01*
X103440702Y-120941207D01*
X102097199Y-122284710D01*
X102097199Y-122284710D01*
G37*
G36*
X101531514Y-121719025D02*
X100880975Y-121068486D01*
X102224478Y-119724983D01*
X102875017Y-120375522D01*
X101531514Y-121719025D01*
X101531514Y-121719025D01*
G37*
G36*
X100965829Y-121153340D02*
X100315290Y-120502801D01*
X101658793Y-119159298D01*
X102309332Y-119809837D01*
X100965829Y-121153340D01*
X100965829Y-121153340D01*
G37*
G36*
X100400143Y-120587654D02*
X99749604Y-119937115D01*
X101093107Y-118593612D01*
X101743646Y-119244151D01*
X100400143Y-120587654D01*
X100400143Y-120587654D01*
G37*
G36*
X99834458Y-120021969D02*
X99183919Y-119371430D01*
X100527422Y-118027927D01*
X101177961Y-118678466D01*
X99834458Y-120021969D01*
X99834458Y-120021969D01*
G37*
G36*
X99268772Y-119456283D02*
X98618233Y-118805744D01*
X99961736Y-117462241D01*
X100612275Y-118112780D01*
X99268772Y-119456283D01*
X99268772Y-119456283D01*
G37*
G36*
X98703087Y-118890598D02*
X98052548Y-118240059D01*
X99396051Y-116896556D01*
X100046590Y-117547095D01*
X98703087Y-118890598D01*
X98703087Y-118890598D01*
G37*
G36*
X96496913Y-118890598D02*
X95153410Y-117547095D01*
X95803949Y-116896556D01*
X97147452Y-118240059D01*
X96496913Y-118890598D01*
X96496913Y-118890598D01*
G37*
G36*
X95931228Y-119456283D02*
X94587725Y-118112780D01*
X95238264Y-117462241D01*
X96581767Y-118805744D01*
X95931228Y-119456283D01*
X95931228Y-119456283D01*
G37*
G36*
X95365542Y-120021969D02*
X94022039Y-118678466D01*
X94672578Y-118027927D01*
X96016081Y-119371430D01*
X95365542Y-120021969D01*
X95365542Y-120021969D01*
G37*
G36*
X94799857Y-120587654D02*
X93456354Y-119244151D01*
X94106893Y-118593612D01*
X95450396Y-119937115D01*
X94799857Y-120587654D01*
X94799857Y-120587654D01*
G37*
G36*
X94234171Y-121153340D02*
X92890668Y-119809837D01*
X93541207Y-119159298D01*
X94884710Y-120502801D01*
X94234171Y-121153340D01*
X94234171Y-121153340D01*
G37*
G36*
X93668486Y-121719025D02*
X92324983Y-120375522D01*
X92975522Y-119724983D01*
X94319025Y-121068486D01*
X93668486Y-121719025D01*
X93668486Y-121719025D01*
G37*
G36*
X93102801Y-122284710D02*
X91759298Y-120941207D01*
X92409837Y-120290668D01*
X93753340Y-121634171D01*
X93102801Y-122284710D01*
X93102801Y-122284710D01*
G37*
G36*
X92537115Y-122850396D02*
X91193612Y-121506893D01*
X91844151Y-120856354D01*
X93187654Y-122199857D01*
X92537115Y-122850396D01*
X92537115Y-122850396D01*
G37*
G36*
X91971430Y-123416081D02*
X90627927Y-122072578D01*
X91278466Y-121422039D01*
X92621969Y-122765542D01*
X91971430Y-123416081D01*
X91971430Y-123416081D01*
G37*
G36*
X91405744Y-123981767D02*
X90062241Y-122638264D01*
X90712780Y-121987725D01*
X92056283Y-123331228D01*
X91405744Y-123981767D01*
X91405744Y-123981767D01*
G37*
G36*
X90840059Y-124547452D02*
X89496556Y-123203949D01*
X90147095Y-122553410D01*
X91490598Y-123896913D01*
X90840059Y-124547452D01*
X90840059Y-124547452D01*
G37*
G36*
X196147095Y-127446590D02*
X195496556Y-126796051D01*
X196840059Y-125452548D01*
X197490598Y-126103087D01*
X196147095Y-127446590D01*
X196147095Y-127446590D01*
G37*
G36*
X196712780Y-128012275D02*
X196062241Y-127361736D01*
X197405744Y-126018233D01*
X198056283Y-126668772D01*
X196712780Y-128012275D01*
X196712780Y-128012275D01*
G37*
G36*
X197278466Y-128577961D02*
X196627927Y-127927422D01*
X197971430Y-126583919D01*
X198621969Y-127234458D01*
X197278466Y-128577961D01*
X197278466Y-128577961D01*
G37*
G36*
X197844151Y-129143646D02*
X197193612Y-128493107D01*
X198537115Y-127149604D01*
X199187654Y-127800143D01*
X197844151Y-129143646D01*
X197844151Y-129143646D01*
G37*
G36*
X198409837Y-129709332D02*
X197759298Y-129058793D01*
X199102801Y-127715290D01*
X199753340Y-128365829D01*
X198409837Y-129709332D01*
X198409837Y-129709332D01*
G37*
G36*
X198975522Y-130275017D02*
X198324983Y-129624478D01*
X199668486Y-128280975D01*
X200319025Y-128931514D01*
X198975522Y-130275017D01*
X198975522Y-130275017D01*
G37*
G36*
X199541207Y-130840702D02*
X198890668Y-130190163D01*
X200234171Y-128846660D01*
X200884710Y-129497199D01*
X199541207Y-130840702D01*
X199541207Y-130840702D01*
G37*
G36*
X200106893Y-131406388D02*
X199456354Y-130755849D01*
X200799857Y-129412346D01*
X201450396Y-130062885D01*
X200106893Y-131406388D01*
X200106893Y-131406388D01*
G37*
G36*
X200672578Y-131972073D02*
X200022039Y-131321534D01*
X201365542Y-129978031D01*
X202016081Y-130628570D01*
X200672578Y-131972073D01*
X200672578Y-131972073D01*
G37*
G36*
X201238264Y-132537759D02*
X200587725Y-131887220D01*
X201931228Y-130543717D01*
X202581767Y-131194256D01*
X201238264Y-132537759D01*
X201238264Y-132537759D01*
G37*
G36*
X201803949Y-133103444D02*
X201153410Y-132452905D01*
X202496913Y-131109402D01*
X203147452Y-131759941D01*
X201803949Y-133103444D01*
X201803949Y-133103444D01*
G37*
G36*
X205396051Y-133103444D02*
X204052548Y-131759941D01*
X204703087Y-131109402D01*
X206046590Y-132452905D01*
X205396051Y-133103444D01*
X205396051Y-133103444D01*
G37*
G36*
X205961736Y-132537759D02*
X204618233Y-131194256D01*
X205268772Y-130543717D01*
X206612275Y-131887220D01*
X205961736Y-132537759D01*
X205961736Y-132537759D01*
G37*
G36*
X206527422Y-131972073D02*
X205183919Y-130628570D01*
X205834458Y-129978031D01*
X207177961Y-131321534D01*
X206527422Y-131972073D01*
X206527422Y-131972073D01*
G37*
G36*
X207093107Y-131406388D02*
X205749604Y-130062885D01*
X206400143Y-129412346D01*
X207743646Y-130755849D01*
X207093107Y-131406388D01*
X207093107Y-131406388D01*
G37*
G36*
X207658793Y-130840702D02*
X206315290Y-129497199D01*
X206965829Y-128846660D01*
X208309332Y-130190163D01*
X207658793Y-130840702D01*
X207658793Y-130840702D01*
G37*
G36*
X208224478Y-130275017D02*
X206880975Y-128931514D01*
X207531514Y-128280975D01*
X208875017Y-129624478D01*
X208224478Y-130275017D01*
X208224478Y-130275017D01*
G37*
G36*
X208790163Y-129709332D02*
X207446660Y-128365829D01*
X208097199Y-127715290D01*
X209440702Y-129058793D01*
X208790163Y-129709332D01*
X208790163Y-129709332D01*
G37*
G36*
X209355849Y-129143646D02*
X208012346Y-127800143D01*
X208662885Y-127149604D01*
X210006388Y-128493107D01*
X209355849Y-129143646D01*
X209355849Y-129143646D01*
G37*
G36*
X209921534Y-128577961D02*
X208578031Y-127234458D01*
X209228570Y-126583919D01*
X210572073Y-127927422D01*
X209921534Y-128577961D01*
X209921534Y-128577961D01*
G37*
G36*
X210487220Y-128012275D02*
X209143717Y-126668772D01*
X209794256Y-126018233D01*
X211137759Y-127361736D01*
X210487220Y-128012275D01*
X210487220Y-128012275D01*
G37*
G36*
X211052905Y-127446590D02*
X209709402Y-126103087D01*
X210359941Y-125452548D01*
X211703444Y-126796051D01*
X211052905Y-127446590D01*
X211052905Y-127446590D01*
G37*
G36*
X210359941Y-124547452D02*
X209709402Y-123896913D01*
X211052905Y-122553410D01*
X211703444Y-123203949D01*
X210359941Y-124547452D01*
X210359941Y-124547452D01*
G37*
G36*
X209794256Y-123981767D02*
X209143717Y-123331228D01*
X210487220Y-121987725D01*
X211137759Y-122638264D01*
X209794256Y-123981767D01*
X209794256Y-123981767D01*
G37*
G36*
X209228570Y-123416081D02*
X208578031Y-122765542D01*
X209921534Y-121422039D01*
X210572073Y-122072578D01*
X209228570Y-123416081D01*
X209228570Y-123416081D01*
G37*
G36*
X208662885Y-122850396D02*
X208012346Y-122199857D01*
X209355849Y-120856354D01*
X210006388Y-121506893D01*
X208662885Y-122850396D01*
X208662885Y-122850396D01*
G37*
G36*
X208097199Y-122284710D02*
X207446660Y-121634171D01*
X208790163Y-120290668D01*
X209440702Y-120941207D01*
X208097199Y-122284710D01*
X208097199Y-122284710D01*
G37*
G36*
X207531514Y-121719025D02*
X206880975Y-121068486D01*
X208224478Y-119724983D01*
X208875017Y-120375522D01*
X207531514Y-121719025D01*
X207531514Y-121719025D01*
G37*
G36*
X206965829Y-121153340D02*
X206315290Y-120502801D01*
X207658793Y-119159298D01*
X208309332Y-119809837D01*
X206965829Y-121153340D01*
X206965829Y-121153340D01*
G37*
G36*
X206400143Y-120587654D02*
X205749604Y-119937115D01*
X207093107Y-118593612D01*
X207743646Y-119244151D01*
X206400143Y-120587654D01*
X206400143Y-120587654D01*
G37*
G36*
X205834458Y-120021969D02*
X205183919Y-119371430D01*
X206527422Y-118027927D01*
X207177961Y-118678466D01*
X205834458Y-120021969D01*
X205834458Y-120021969D01*
G37*
G36*
X205268772Y-119456283D02*
X204618233Y-118805744D01*
X205961736Y-117462241D01*
X206612275Y-118112780D01*
X205268772Y-119456283D01*
X205268772Y-119456283D01*
G37*
G36*
X204703087Y-118890598D02*
X204052548Y-118240059D01*
X205396051Y-116896556D01*
X206046590Y-117547095D01*
X204703087Y-118890598D01*
X204703087Y-118890598D01*
G37*
G36*
X202496913Y-118890598D02*
X201153410Y-117547095D01*
X201803949Y-116896556D01*
X203147452Y-118240059D01*
X202496913Y-118890598D01*
X202496913Y-118890598D01*
G37*
G36*
X201931228Y-119456283D02*
X200587725Y-118112780D01*
X201238264Y-117462241D01*
X202581767Y-118805744D01*
X201931228Y-119456283D01*
X201931228Y-119456283D01*
G37*
G36*
X201365542Y-120021969D02*
X200022039Y-118678466D01*
X200672578Y-118027927D01*
X202016081Y-119371430D01*
X201365542Y-120021969D01*
X201365542Y-120021969D01*
G37*
G36*
X200799857Y-120587654D02*
X199456354Y-119244151D01*
X200106893Y-118593612D01*
X201450396Y-119937115D01*
X200799857Y-120587654D01*
X200799857Y-120587654D01*
G37*
G36*
X200234171Y-121153340D02*
X198890668Y-119809837D01*
X199541207Y-119159298D01*
X200884710Y-120502801D01*
X200234171Y-121153340D01*
X200234171Y-121153340D01*
G37*
G36*
X199668486Y-121719025D02*
X198324983Y-120375522D01*
X198975522Y-119724983D01*
X200319025Y-121068486D01*
X199668486Y-121719025D01*
X199668486Y-121719025D01*
G37*
G36*
X199102801Y-122284710D02*
X197759298Y-120941207D01*
X198409837Y-120290668D01*
X199753340Y-121634171D01*
X199102801Y-122284710D01*
X199102801Y-122284710D01*
G37*
G36*
X198537115Y-122850396D02*
X197193612Y-121506893D01*
X197844151Y-120856354D01*
X199187654Y-122199857D01*
X198537115Y-122850396D01*
X198537115Y-122850396D01*
G37*
G36*
X197971430Y-123416081D02*
X196627927Y-122072578D01*
X197278466Y-121422039D01*
X198621969Y-122765542D01*
X197971430Y-123416081D01*
X197971430Y-123416081D01*
G37*
G36*
X197405744Y-123981767D02*
X196062241Y-122638264D01*
X196712780Y-121987725D01*
X198056283Y-123331228D01*
X197405744Y-123981767D01*
X197405744Y-123981767D01*
G37*
G36*
X196840059Y-124547452D02*
X195496556Y-123203949D01*
X196147095Y-122553410D01*
X197490598Y-123896913D01*
X196840059Y-124547452D01*
X196840059Y-124547452D01*
G37*
D38*
X101870000Y-71650000D03*
X99330000Y-71650000D03*
D39*
X100600000Y-63883333D03*
D40*
X71600000Y-95495000D03*
X74160000Y-96125000D03*
X76130000Y-97875000D03*
X77060000Y-100355000D03*
X76740000Y-102945000D03*
X75250000Y-105115000D03*
X72920000Y-106335000D03*
X70280000Y-106335000D03*
X67950000Y-105115000D03*
X66460000Y-102945000D03*
X66140000Y-100335000D03*
X67070000Y-97875000D03*
X69040000Y-96125000D03*
X97600000Y-95500000D03*
X100160000Y-96130000D03*
X102130000Y-97880000D03*
X103060000Y-100360000D03*
X102740000Y-102950000D03*
X101250000Y-105120000D03*
X98920000Y-106340000D03*
X96280000Y-106340000D03*
X93950000Y-105120000D03*
X92460000Y-102950000D03*
X92140000Y-100340000D03*
X93070000Y-97880000D03*
X95040000Y-96130000D03*
X137600000Y-95500000D03*
X140160000Y-96130000D03*
X142130000Y-97880000D03*
X143060000Y-100360000D03*
X142740000Y-102950000D03*
X141250000Y-105120000D03*
X138920000Y-106340000D03*
X136280000Y-106340000D03*
X133950000Y-105120000D03*
X132460000Y-102950000D03*
X132140000Y-100340000D03*
X133070000Y-97880000D03*
X135040000Y-96130000D03*
X163600000Y-95500000D03*
X166160000Y-96130000D03*
X168130000Y-97880000D03*
X169060000Y-100360000D03*
X168740000Y-102950000D03*
X167250000Y-105120000D03*
X164920000Y-106340000D03*
X162280000Y-106340000D03*
X159950000Y-105120000D03*
X158460000Y-102950000D03*
X158140000Y-100340000D03*
X159070000Y-97880000D03*
X161040000Y-96130000D03*
X203600000Y-95495000D03*
X206160000Y-96125000D03*
X208130000Y-97875000D03*
X209060000Y-100355000D03*
X208740000Y-102945000D03*
X207250000Y-105115000D03*
X204920000Y-106335000D03*
X202280000Y-106335000D03*
X199950000Y-105115000D03*
X198460000Y-102945000D03*
X198140000Y-100335000D03*
X199070000Y-97875000D03*
X201040000Y-96125000D03*
X229600000Y-95495000D03*
X232160000Y-96125000D03*
X234130000Y-97875000D03*
X235060000Y-100355000D03*
X234740000Y-102945000D03*
X233250000Y-105115000D03*
X230920000Y-106335000D03*
X228280000Y-106335000D03*
X225950000Y-105115000D03*
X224460000Y-102945000D03*
X224140000Y-100335000D03*
X225070000Y-97875000D03*
X227040000Y-96125000D03*
D41*
X62600000Y-137000000D03*
X62600000Y-65000000D03*
X238600000Y-65000000D03*
D42*
X55600000Y-136000000D03*
D43*
X58000000Y-136000000D03*
X57297056Y-137697056D03*
X55600000Y-138400000D03*
X53902944Y-137697056D03*
X53200000Y-136000000D03*
X53902944Y-134302944D03*
X55600000Y-133600000D03*
X57297056Y-134302944D03*
D42*
X55600000Y-66000000D03*
D43*
X58000000Y-66000000D03*
X57297056Y-67697056D03*
X55600000Y-68400000D03*
X53902944Y-67697056D03*
X53200000Y-66000000D03*
X53902944Y-64302944D03*
X55600000Y-63600000D03*
X57297056Y-64302944D03*
D42*
X245600000Y-66000000D03*
D43*
X248000000Y-66000000D03*
X247297056Y-67697056D03*
X245600000Y-68400000D03*
X243902944Y-67697056D03*
X243200000Y-66000000D03*
X243902944Y-64302944D03*
X245600000Y-63600000D03*
X247297056Y-64302944D03*
D42*
X245600000Y-136000000D03*
D43*
X248000000Y-136000000D03*
X247297056Y-137697056D03*
X245600000Y-138400000D03*
X243902944Y-137697056D03*
X243200000Y-136000000D03*
X243902944Y-134302944D03*
X245600000Y-133600000D03*
X247297056Y-134302944D03*
D12*
X157350000Y-79500000D03*
X181350000Y-112500000D03*
X195850000Y-86750000D03*
X173350000Y-65000000D03*
X123600000Y-84750000D03*
X130600000Y-116750000D03*
X234600000Y-66500000D03*
X172100000Y-79500000D03*
X182850000Y-83500000D03*
X234600000Y-84250000D03*
X226100000Y-85000000D03*
X98850000Y-83250000D03*
X96350000Y-83250000D03*
X152600000Y-75000000D03*
X115350000Y-88750000D03*
X117850000Y-88750000D03*
X120350000Y-88750000D03*
X112350000Y-114000000D03*
X112350000Y-116500000D03*
X106850000Y-129250000D03*
X96350000Y-115250000D03*
X192600000Y-123750000D03*
D19*
X106600000Y-119000000D03*
X109100000Y-119000000D03*
X212100000Y-120250000D03*
X214600000Y-120250000D03*
D44*
X197600000Y-76800000D03*
X197600000Y-70700000D03*
X180350000Y-64700000D03*
X180350000Y-70800000D03*
X209350000Y-70950000D03*
X209350000Y-77050000D03*
X242350000Y-74950000D03*
X242350000Y-81050000D03*
X147600000Y-82950000D03*
X147600000Y-89050000D03*
X137600000Y-82950000D03*
X137600000Y-89050000D03*
X58600000Y-85950000D03*
X58600000Y-92050000D03*
D12*
X64850000Y-92000000D03*
X68850000Y-88750000D03*
D45*
X74100000Y-102600000D03*
X74100000Y-101000000D03*
X74100000Y-99400000D03*
X69100000Y-102600000D03*
X69100000Y-101000000D03*
X69100000Y-99400000D03*
X100100000Y-102600000D03*
X100100000Y-101000000D03*
X100100000Y-99400000D03*
X95100000Y-102600000D03*
X95100000Y-101000000D03*
X95100000Y-99400000D03*
X140100000Y-102600000D03*
X140100000Y-101000000D03*
X140100000Y-99400000D03*
X135100000Y-102600000D03*
X135100000Y-101000000D03*
X135100000Y-99400000D03*
X166100000Y-102600000D03*
X166100000Y-101000000D03*
X166100000Y-99400000D03*
X161100000Y-102600000D03*
X161100000Y-101000000D03*
X161100000Y-99400000D03*
X206100000Y-102600000D03*
X206100000Y-101000000D03*
X206100000Y-99400000D03*
X201100000Y-102600000D03*
X201100000Y-101000000D03*
X201100000Y-99400000D03*
X232100000Y-102600000D03*
X232100000Y-101000000D03*
X232100000Y-99400000D03*
X227100000Y-102600000D03*
X227100000Y-101000000D03*
X227100000Y-99400000D03*
D29*
X90750000Y-85670000D03*
X89450000Y-85670000D03*
X90100000Y-88330000D03*
D14*
X87350000Y-91350000D03*
X87350000Y-88650000D03*
X94100000Y-88600000D03*
X94100000Y-85900000D03*
D12*
X88600000Y-83250000D03*
X90350000Y-91000000D03*
D20*
X171100000Y-72500000D03*
X171100000Y-75000000D03*
X165850000Y-75250000D03*
X165850000Y-77750000D03*
D30*
X165850000Y-66100000D03*
D31*
X165850000Y-72400000D03*
X168150000Y-72400000D03*
X163550000Y-72400000D03*
D12*
X161100000Y-79250000D03*
D46*
X133550000Y-71750000D03*
D47*
X122100000Y-71750000D03*
D46*
X110650000Y-71750000D03*
D48*
X68900000Y-70000000D03*
X68900000Y-72000000D03*
X68900000Y-74000000D03*
X68900000Y-76000000D03*
X68900000Y-78000000D03*
X68900000Y-80000000D03*
X68900000Y-82000000D03*
X68900000Y-84000000D03*
X84300000Y-84000000D03*
X84300000Y-82000000D03*
X84300000Y-80000000D03*
X84300000Y-78000000D03*
X84300000Y-76000000D03*
X84300000Y-74000000D03*
X84300000Y-72000000D03*
X84300000Y-70000000D03*
D15*
X109200000Y-116500000D03*
X106500000Y-116500000D03*
X109200000Y-114000000D03*
X106500000Y-114000000D03*
X214700000Y-117750000D03*
X212000000Y-117750000D03*
X214700000Y-115250000D03*
X212000000Y-115250000D03*
M02*
